<svg viewBox="0 0 640 400" data-background-color="#ff5858" preserveAspectRatio="xMidYMid meet" height="400" width="640" xmlns="http://www.w3.org/2000/svg" xmlns:xlink="http://www.w3.org/1999/xlink"><rect width="640" height="400" x="0" y="0" opacity="1" fill="#ff5858" data-fill-palette-color="background" id="background"></rect><g id="tight-bounds" transform="matrix(1,0,0,1,122.24000000000001,143.09603335519205)"><svg viewBox="0 0 395.52 113.8079332896159" height="113.8079332896159" width="395.52"><g><svg viewBox="0 0 395.52 113.8079332896159" height="113.8079332896159" width="395.52"><g transform="matrix(1,0,0,1,0,70.33786852082542)"><svg viewBox="0 0 395.52 43.47006476879048" height="43.47006476879048" width="395.52"><g><svg viewBox="0 0 395.52 43.47006476879048" height="43.47006476879048" width="395.52"><g><svg viewBox="0 0 395.52 43.47006476879048" height="43.47006476879048" width="395.52"><g transform="matrix(1,0,0,1,0,0)"><svg width="395.52" viewBox="0.5099999904632568 -40.5 485.8399658203125 53.44000244140625" height="43.47006476879048" data-palette-color="#ffffff"><g class="undefined-text-0" data-fill-palette-color="primary" id="text-0"><path d="M0.51 0L18.43-38.16 26.64-38.16 45.09 0 36.96 0 33.91-6.42 11.62-6.42 8.67 0 0.51 0ZM14.58-12.79L30.86-12.79 22.61-30.13 14.58-12.79ZM46.68 12.94L43.67 6.32Q45.36 5.3 46.57 4.17 47.78 3.05 48.56 1.7 49.34 0.34 49.7-1.33 50.07-3 50.07-5.13L50.07-5.13 50.07-38.16 57.81-38.16 57.81-6.52Q57.81-3.98 57.59-1.89 57.37 0.2 56.87 1.94 56.37 3.69 55.53 5.15 54.69 6.62 53.45 7.93 52.22 9.25 50.55 10.47 48.87 11.69 46.68 12.94L46.68 12.94ZM62.79 0L80.71-38.16 88.91-38.16 107.37 0 99.24 0 96.19-6.42 73.9-6.42 70.94 0 62.79 0ZM76.85-12.79L93.13-12.79 84.88-30.13 76.85-12.79ZM108.27 0L124.14-19.38 109.47-38.16 118.94-38.16 129.07-25.02 139.25-38.16 148.58-38.16 133.64-19.46 149.09 0 139.59 0 128.73-13.72 117.62 0 108.27 0Z" fill="#ffffff" data-fill-palette-color="primary"></path><path d="M171.11 0L171.11-38.16 178.85-38.16 178.85-6.79 201.04-6.79 201.04 0 171.11 0ZM205.9-14.4L205.9-14.4Q205.9-17.5 207.15-20.21 208.41-22.92 210.74-24.95 213.07-26.98 216.38-28.15 219.69-29.32 223.82-29.32L223.82-29.32Q227.94-29.32 231.25-28.15 234.56-26.98 236.89-24.95 239.22-22.92 240.48-20.21 241.74-17.5 241.74-14.4L241.74-14.4Q241.74-11.3 240.48-8.59 239.22-5.88 236.89-3.86 234.56-1.83 231.25-0.66 227.94 0.51 223.82 0.51L223.82 0.51Q219.69 0.51 216.38-0.66 213.07-1.83 210.74-3.86 208.41-5.88 207.15-8.59 205.9-11.3 205.9-14.4ZM213.49-14.4L213.49-14.4Q213.49-12.67 214.19-11.12 214.88-9.57 216.21-8.39 217.54-7.2 219.46-6.51 221.38-5.81 223.82-5.81L223.82-5.81Q226.26-5.81 228.17-6.51 230.09-7.2 231.42-8.39 232.75-9.57 233.45-11.12 234.14-12.67 234.14-14.4L234.14-14.4Q234.14-16.14 233.45-17.7 232.75-19.26 231.42-20.45 230.09-21.63 228.17-22.33 226.26-23.02 223.82-23.02L223.82-23.02Q221.38-23.02 219.46-22.33 217.54-21.63 216.21-20.45 214.88-19.26 214.19-17.7 213.49-16.14 213.49-14.4ZM247.67-9.08L247.67-9.08Q247.67-11.16 248.57-12.87 249.47-14.58 251.28-15.81 253.09-17.04 255.78-17.71 258.48-18.38 262.07-18.38L262.07-18.38Q264.73-18.38 267.67-17.99 270.62-17.6 273.74-16.8L273.74-16.8Q273.62-18.16 272.91-19.32 272.2-20.48 270.95-21.33 269.69-22.17 267.92-22.63 266.15-23.1 263.9-23.1L263.9-23.1Q262.68-23.1 261.22-22.95 259.75-22.8 258.19-22.51 256.63-22.22 255.1-21.78 253.57-21.34 252.26-20.73L252.26-20.73 250.06-26.66Q251.69-27.25 253.56-27.73 255.43-28.22 257.38-28.58 259.34-28.93 261.29-29.13 263.24-29.32 265.07-29.32L265.07-29.32Q273.15-29.32 277.09-25.2 281.02-21.07 281.02-12.55L281.02-12.55 281.02 0 273.79 0 273.79-2.71Q272.67-2.05 271.34-1.46 270.01-0.88 268.44-0.44 266.88 0 265.09 0.26 263.29 0.51 261.29 0.51L261.29 0.51Q257.92 0.51 255.37-0.22 252.82-0.95 251.11-2.25 249.4-3.54 248.53-5.29 247.67-7.03 247.67-9.08ZM255.28-9.33L255.28-9.33Q255.28-8.62 255.65-7.97 256.02-7.32 256.82-6.82 257.63-6.32 258.88-6.02 260.14-5.71 261.92-5.71L261.92-5.71Q263.83-5.71 265.61-6.05 267.39-6.4 268.93-6.96 270.47-7.52 271.71-8.25 272.96-8.98 273.79-9.77L273.79-9.77 273.79-11.04Q272.13-11.5 270.51-11.82 268.88-12.13 267.41-12.32 265.93-12.5 264.62-12.57 263.32-12.65 262.34-12.65L262.34-12.65Q260.31-12.65 258.97-12.38 257.63-12.11 256.8-11.66 255.97-11.21 255.63-10.6 255.28-9.99 255.28-9.33ZM288.34-14.28L288.34-14.28Q288.34-17.72 289.63-20.5 290.93-23.27 293.21-25.23 295.49-27.2 298.63-28.26 301.77-29.32 305.43-29.32L305.43-29.32Q306.99-29.32 308.52-29.13 310.04-28.93 311.45-28.59 312.85-28.25 314.08-27.77 315.32-27.29 316.27-26.73L316.27-26.73 316.27-40.5 323.49-40.5 323.49 0 316.27 0 316.27-2.71Q315.32-2.05 314.02-1.46 312.73-0.88 311.24-0.44 309.75 0 308.15 0.26 306.55 0.51 304.99 0.51L304.99 0.51Q301.33 0.51 298.26-0.56 295.2-1.64 293-3.59 290.8-5.54 289.57-8.26 288.34-10.99 288.34-14.28ZM295.93-14.28L295.93-14.28Q295.93-12.55 296.63-11.01 297.32-9.47 298.63-8.31 299.93-7.15 301.78-6.48 303.62-5.81 305.92-5.81L305.92-5.81Q307.38-5.81 308.85-6.09 310.31-6.37 311.67-6.88 313.02-7.4 314.2-8.13 315.39-8.86 316.27-9.77L316.27-9.77 316.27-19.75Q315.17-20.63 313.95-21.24 312.73-21.85 311.46-22.24 310.19-22.63 308.89-22.81 307.6-23 306.38-23L306.38-23Q303.89-23 301.95-22.33 300.01-21.66 298.68-20.48 297.35-19.31 296.64-17.72 295.93-16.14 295.93-14.28ZM336.14-32.74L336.14-32.74Q335.06-32.74 334.2-33.04 333.33-33.35 332.72-33.87 332.11-34.4 331.78-35.1 331.45-35.79 331.45-36.57L331.45-36.57Q331.45-37.38 331.78-38.07 332.11-38.77 332.72-39.28 333.33-39.79 334.2-40.1 335.06-40.41 336.14-40.41L336.14-40.41Q337.24-40.41 338.1-40.1 338.97-39.79 339.58-39.28 340.19-38.77 340.52-38.07 340.85-37.38 340.85-36.57L340.85-36.57Q340.85-35.79 340.52-35.1 340.19-34.4 339.58-33.87 338.97-33.35 338.1-33.04 337.24-32.74 336.14-32.74ZM332.52 0L332.52-28.81 339.75-28.81 339.75 0 332.52 0ZM349 0L349-28.81 356.23-28.81 356.23-26.37Q359.11-28 361.73-28.66 364.36-29.32 366.87-29.32L366.87-29.32Q370.17-29.32 372.98-28.36 375.78-27.39 377.83-25.49 379.89-23.58 381.05-20.74 382.2-17.9 382.2-14.16L382.2-14.16 382.2 0 375 0 375-12.99Q375-15.36 374.33-17.22 373.66-19.09 372.4-20.37 371.15-21.66 369.35-22.33 367.56-23 365.33-23L365.33-23Q364.16-23 362.93-22.75 361.7-22.51 360.51-22.06 359.33-21.61 358.23-20.94 357.13-20.26 356.23-19.41L356.23-19.41 356.23 0 349 0ZM392.9 10.99L395.58 4.88Q396.95 5.37 398.36 5.7 399.78 6.03 401.11 6.24 402.44 6.45 403.66 6.53 404.88 6.62 405.84 6.62L405.84 6.62Q408.72 6.62 410.85 5.92 412.99 5.22 414.42 4.05 415.84 2.88 416.55 1.33 417.26-0.22 417.26-1.95L417.26-1.95 417.26-3.2Q416.33-2.56 415.09-1.98 413.84-1.39 412.35-0.95 410.86-0.51 409.19-0.24 407.52 0.02 405.74 0.02L405.74 0.02Q402.2 0.02 399.19-1.04 396.19-2.1 393.99-4.02 391.8-5.93 390.56-8.62 389.33-11.3 389.33-14.58L389.33-14.58Q389.33-17.92 390.63-20.64 391.92-23.36 394.2-25.29 396.48-27.22 399.61-28.27 402.73-29.32 406.4-29.32L406.4-29.32Q407.96-29.32 409.5-29.13 411.04-28.93 412.44-28.59 413.84-28.25 415.08-27.77 416.31-27.29 417.26-26.73L417.26-26.73 417.26-28.81 424.49-28.81 424.49-3.3Q424.49 0.63 423.29 3.66 422.09 6.69 419.79 8.75 417.48 10.82 414.06 11.88 410.64 12.94 406.23 12.94L406.23 12.94Q404.64 12.94 402.93 12.81 401.22 12.67 399.5 12.41 397.78 12.16 396.11 11.8 394.43 11.45 392.9 10.99L392.9 10.99ZM396.92-14.65L396.92-14.65Q396.92-12.92 397.62-11.39 398.32-9.86 399.61-8.73 400.9-7.59 402.73-6.95 404.57-6.3 406.86-6.3L406.86-6.3Q408.35-6.3 409.83-6.58 411.3-6.86 412.66-7.37 414.01-7.89 415.2-8.62 416.38-9.35 417.26-10.25L417.26-10.25 417.26-19.75Q416.16-20.63 414.94-21.24 413.72-21.85 412.45-22.24 411.18-22.63 409.89-22.81 408.59-23 407.37-23L407.37-23Q404.88-23 402.94-22.34 401-21.68 399.67-20.54 398.34-19.41 397.63-17.9 396.92-16.38 396.92-14.65ZM432.86-4.22L432.86-4.22Q432.86-5.2 433.26-6.07 433.66-6.93 434.42-7.58 435.18-8.23 436.25-8.59 437.33-8.96 438.67-8.96L438.67-8.96Q440.01-8.96 441.09-8.59 442.16-8.23 442.91-7.58 443.65-6.93 444.05-6.07 444.46-5.2 444.46-4.22L444.46-4.22Q444.46-3.25 444.05-2.38 443.65-1.51 442.91-0.88 442.16-0.24 441.09 0.13 440.01 0.51 438.67 0.51L438.67 0.51Q437.33 0.51 436.25 0.13 435.18-0.24 434.42-0.88 433.66-1.51 433.26-2.38 432.86-3.25 432.86-4.22ZM453.8-4.22L453.8-4.22Q453.8-5.2 454.21-6.07 454.61-6.93 455.37-7.58 456.12-8.23 457.2-8.59 458.27-8.96 459.61-8.96L459.61-8.96Q460.96-8.96 462.03-8.59 463.11-8.23 463.85-7.58 464.59-6.93 465-6.07 465.4-5.2 465.4-4.22L465.4-4.22Q465.4-3.25 465-2.38 464.59-1.51 463.85-0.88 463.11-0.24 462.03 0.13 460.96 0.51 459.61 0.51L459.61 0.51Q458.27 0.51 457.2 0.13 456.12-0.24 455.37-0.88 454.61-1.51 454.21-2.38 453.8-3.25 453.8-4.22ZM474.75-4.22L474.75-4.22Q474.75-5.2 475.15-6.07 475.55-6.93 476.31-7.58 477.07-8.23 478.14-8.59 479.22-8.96 480.56-8.96L480.56-8.96Q481.9-8.96 482.98-8.59 484.05-8.23 484.79-7.58 485.54-6.93 485.94-6.07 486.35-5.2 486.35-4.22L486.35-4.22Q486.35-3.25 485.94-2.38 485.54-1.51 484.79-0.88 484.05-0.24 482.98 0.13 481.9 0.51 480.56 0.51L480.56 0.51Q479.22 0.51 478.14 0.13 477.07-0.24 476.31-0.88 475.55-1.51 475.15-2.38 474.75-3.25 474.75-4.22Z" fill="#ffffff" data-fill-palette-color="primary"></path></g></svg></g></svg></g></svg></g></svg></g><g transform="matrix(1,0,0,1,123.1432867319664,0)"><svg viewBox="0 0 149.23342653606718 60.075629510468445" height="60.075629510468445" width="149.23342653606718"><g><svg xmlns="http://www.w3.org/2000/svg" xmlns:xlink="http://www.w3.org/1999/xlink" version="1.1" x="0" y="0" viewBox="7.439000129699707 32.95899963378906 84.56099700927734 34.04100036621094" enable-background="new 0 0 100 100" xml:space="preserve" height="60.075629510468445" width="149.23342653606718" class="icon-icon-0" data-fill-palette-color="accent" id="icon-0"><path fill="#ffffff" d="M7.439 32.959" data-fill-palette-color="accent"></path><path fill="#ffffff" d="M17 62.5c0 2.485-2.015 4.5-4.5 4.5l0 0C10.015 67 8 64.985 8 62.5v-25c0-2.485 2.015-4.5 4.5-4.5l0 0c2.485 0 4.5 2.015 4.5 4.5V62.5z" data-fill-palette-color="accent"></path><path fill="#ffffff" d="M30 63c0 2.209-1.791 4-4 4l0 0c-2.209 0-4-1.791-4-4V37c0-2.209 1.791-4 4-4l0 0c2.209 0 4 1.791 4 4V63z" data-fill-palette-color="accent"></path><path fill="#ffffff" d="M42 63.5c0 1.933-1.567 3.5-3.5 3.5l0 0c-1.933 0-3.5-1.567-3.5-3.5v-27c0-1.933 1.567-3.5 3.5-3.5l0 0c1.933 0 3.5 1.567 3.5 3.5V63.5z" data-fill-palette-color="accent"></path><path fill="#ffffff" d="M53 64c0 1.657-1.343 3-3 3l0 0c-1.657 0-3-1.343-3-3V36c0-1.657 1.343-3 3-3l0 0c1.657 0 3 1.343 3 3V64z" data-fill-palette-color="accent"></path><path fill="#ffffff" d="M63 64.5c0 1.381-1.119 2.5-2.5 2.5l0 0c-1.381 0-2.5-1.119-2.5-2.5v-29c0-1.381 1.119-2.5 2.5-2.5l0 0c1.381 0 2.5 1.119 2.5 2.5V64.5z" data-fill-palette-color="accent"></path><path fill="#ffffff" d="M72 65c0 1.105-0.895 2-2 2l0 0c-1.105 0-2-0.895-2-2V35c0-1.105 0.895-2 2-2l0 0c1.105 0 2 0.895 2 2V65z" data-fill-palette-color="accent"></path><path fill="#ffffff" d="M80 65.5c0 0.828-0.672 1.5-1.5 1.5l0 0c-0.828 0-1.5-0.672-1.5-1.5v-31c0-0.828 0.672-1.5 1.5-1.5l0 0c0.828 0 1.5 0.672 1.5 1.5V65.5z" data-fill-palette-color="accent"></path><path fill="#ffffff" d="M87 66c0 0.552-0.448 1-1 1l0 0c-0.552 0-1-0.448-1-1V34c0-0.552 0.448-1 1-1l0 0c0.552 0 1 0.448 1 1V66z" data-fill-palette-color="accent"></path><path fill="#ffffff" d="M92 66.5c0 0.276-0.224 0.5-0.5 0.5l0 0c-0.276 0-0.5-0.224-0.5-0.5v-33c0-0.276 0.224-0.5 0.5-0.5l0 0c0.276 0 0.5 0.224 0.5 0.5V66.5z" data-fill-palette-color="accent"></path></svg></g></svg></g><g></g></svg></g><defs></defs></svg><rect width="395.52" height="113.8079332896159" fill="none" stroke="none" visibility="hidden"></rect></g></svg>